# xmcd
#
# Track frame offsets: 
#        150
#        17339
#        40924
#        51285
#        72122
#        93870
#        122565
#        146304
#        167022
#        182265
#        198550
#        224332
#
# Disc length: 3264 seconds
#
# Revision: 5
# Processed by: cddbd v1.5.2PL0 Copyright (c) Steve Scherf et al.
# Submitted via: ExactAudioCopyFreeDBPlugin 1.0
#
DISCID=9a0cbe0c
DTITLE=Various Artist - BluesQuest
DYEAR=1999
DGENRE=Blues
TTITLE0=Terry Evans - Get Up, Get Ready
TTITLE1=Doug MacLeod - One Good Woman
TTITLE2=Joe Beard - Dirty Groundhoug
TTITLE3=Mighty Sam McClain - Too Proud
TTITLE4=Ronnie Earl, Pinetop Perkins, Calvin "Fuzz" Jones, Willie "Big
TTITLE4=Eyes" Smith - Country Girl
TTITLE5=Bruce Katz Band - The Prowler
TTITLE6=Sherman Robertson - Going Back Home
TTITLE7=Doug MacLeod - Old Country Road
TTITLE8=Robert Lucas - 50 Lbs Of Bone
TTITLE9=Joe Beard - See See Rider
TTITLE10=Ronnie Earl, Pinetop Perkins, Calvin "Fuzz" Jones, Willie "Bi
TTITLE10=g Eyes" Smith - Ronnie's Blues
TTITLE11=Mighty Sam McClain - Somebody Help Me
EXTD=
EXTT0=
EXTT1=
EXTT2=
EXTT3=
EXTT4=
EXTT5=
EXTT6=
EXTT7=
EXTT8=
EXTT9=
EXTT10=
EXTT11=
PLAYORDER=
